<svg width="101" height="48" viewBox="0 0 57 27" xmlns="http://www.w3.org/2000/svg" xmlns:xlink="http://www.w3.org/1999/xlink"><defs><path id="a" d="M.024.06v11.96h11.559V.06H.024z"/></defs><g fill="none" fill-rule="evenodd"><mask id="b" fill="#fff"><use xlink:href="#a"/></mask><path d="M6 6.237l3.142.006c.825 0 1.265-.017 1.881.652 1.23 1.332.347 3.327-1.832 2.83.469 2.223-1.86 3.04-2.84 1.51-.383-.599-.334-1.178-.35-1.863L6 6.237" fill="#2A3077" mask="url(#b)"/><path d="M5.583 6.237l-3.143.006c-.824 0-1.264-.017-1.881.652-1.23 1.332-.346 3.327 1.832 2.83-.468 2.223 1.86 3.04 2.84 1.51.384-.599.335-1.178.35-1.863l.002-3.135" fill="#E5782B" mask="url(#b)"/><path d="M5.583 5.842L2.44 5.836c-.824 0-1.264.017-1.881-.652-1.23-1.333-.346-3.326 1.833-2.83-.47-2.222 1.86-3.04 2.84-1.51.383.599.334 1.178.35 1.863l.001 3.135" fill="#2A3077" mask="url(#b)"/><path d="M6 5.842l3.142-.006c.826 0 1.265.017 1.882-.652 1.23-1.333.346-3.326-1.833-2.83.469-2.222-1.86-3.04-2.84-1.51-.383.599-.334 1.178-.35 1.863L6 5.842" fill="#E5782B" mask="url(#b)"/><path fill="#E5782B" d="M35.586 19.957h5.168l4.489-5.855h-5.168l-4.49 5.855m-5.168 6.819h5.169l4.489-5.927h-5.169l-4.489 5.927"/><path d="M43.888 26.812l5.967-12.729h4.51l2.517 12.73h-3.96l-.292-1.698h-3.843l-.883 1.697h-4.016zm7.713-8.637l-1.46 3.77h2.011l-.551-3.77zm-26.542 8.637l1.728-12.729h3.991l-1.728 12.73h-3.991zm-14.869 0l5.967-12.729h4.51l2.517 12.73h-3.961l-.291-1.698h-3.843l-.884 1.697H10.19zm7.706-8.622l-1.454 3.756h2.012l-.552-3.771-.006.015zm17.17 2.67h5l3.427 5.88h-5.001l-3.426-5.88m-2.786-6.83h4.825l3.305 5.927h-4.824L32.28 14.03m-21.972.51l-.383 3.743c-1.471-2.103-4.88-.652-5.148 1.967-.34 3.325 2.94 4.1 4.726 2.142l-.385 3.752a8.448 8.448 0 0 1-1.568.625 6.193 6.193 0 0 1-1.533.23 5.775 5.775 0 0 1-1.74-.208 4.203 4.203 0 0 1-1.413-.709 5.178 5.178 0 0 1-1.748-2.332c-.36-.948-.478-2.018-.355-3.213a8.11 8.11 0 0 1 .704-2.631 7.621 7.621 0 0 1 1.531-2.17 6.503 6.503 0 0 1 2.01-1.415 6.16 6.16 0 0 1 2.363-.504 5.636 5.636 0 0 1 1.492.163c.488.121.968.31 1.447.56m40.334-4.443l1.023-1.74c.28.281.555.499.828.653.272.154.515.232.728.232.09 0 .162-.024.221-.068a.218.218 0 0 0 .086-.178c0-.11-.13-.235-.39-.375a.853.853 0 0 1-.04-.018l-.438-.234c-.343-.187-.597-.403-.76-.648a1.509 1.509 0 0 1-.247-.859c0-.607.231-1.106.69-1.497.46-.39 1.054-.585 1.78-.585.382 0 .758.059 1.13.174.373.117.755.296 1.146.539l-.921 1.587a2.756 2.756 0 0 0-.56-.43 1.024 1.024 0 0 0-.499-.152.349.349 0 0 0-.229.074.232.232 0 0 0-.09.183c0 .092.111.19.33.29l.145.07.348.164c.355.163.616.372.784.625.168.253.252.569.252.944 0 .674-.24 1.215-.716 1.626-.477.411-1.108.616-1.896.616a3.76 3.76 0 0 1-1.301-.248 6.457 6.457 0 0 1-1.404-.745zm-2.031-5.128h2.653l-1.072 5.898h-2.566l.206-.792c-.24.337-.505.59-.79.755a1.866 1.866 0 0 1-.953.248c-.618 0-1.127-.243-1.528-.73-.4-.487-.6-1.116-.6-1.89a4.262 4.262 0 0 1 .804-2.486c.286-.391.609-.687.964-.89a2.3 2.3 0 0 1 1.142-.302c.367 0 .683.086.952.258.267.17.496.432.687.78l.1-.849zm-1.17 2.207a.665.665 0 0 0-.541.265c-.142.177-.212.405-.212.68 0 .215.052.379.155.492.1.115.247.17.438.17a.738.738 0 0 0 .58-.252c.149-.17.223-.388.223-.655 0-.216-.057-.387-.175-.511a.605.605 0 0 0-.467-.19zm-7.254 3.691l1.06-5.898h2.728l-1.068 5.898h-2.72zm2.58-6.2c-.405 0-.745-.128-1.02-.385a1.251 1.251 0 0 1-.41-.948c0-.405.163-.754.487-1.052a1.666 1.666 0 0 1 1.161-.444c.41 0 .752.127 1.023.38.272.253.408.568.408.95 0 .407-.162.758-.486 1.055a1.664 1.664 0 0 1-1.162.444zm-7.587 6.2l1.08-5.898h2.49l-.194.805c.197-.335.425-.585.687-.748a1.64 1.64 0 0 1 .892-.246c.083 0 .178.008.283.024.107.015.235.037.383.068l-.434 2.409a4.96 4.96 0 0 0-.516-.15 1.95 1.95 0 0 0-.413-.05c-.317 0-.554.081-.71.247-.157.165-.273.469-.351.91l-.47 2.63H35.18zm.164-2.607H31.51c0 .296.06.526.185.69a.604.604 0 0 0 .513.245.763.763 0 0 0 .418-.117c.12-.078.251-.214.393-.407l2.05.444c-.34.654-.774 1.147-1.308 1.478-.532.331-1.158.497-1.877.497-.842 0-1.532-.258-2.068-.773-.536-.516-.805-1.177-.805-1.983 0-.475.08-.925.24-1.345a3.3 3.3 0 0 1 .687-1.108 3.544 3.544 0 0 1 1.166-.816 3.53 3.53 0 0 1 1.4-.285c.843 0 1.534.25 2.073.748.54.499.81 1.13.81 1.893a7.853 7.853 0 0 1-.043.84zm-3.69-1.096h1.388v-.086a.633.633 0 0 0-.15-.442.514.514 0 0 0-.398-.161.78.78 0 0 0-.515.165c-.134.11-.242.285-.324.524zm-6.83 3.704l.677-3.776h-.721l.392-2.123h.72l.296-1.649h2.722l-.296 1.65h.837l-.39 2.122h-.837l-.684 3.776h-2.716zm-6.789-2.522c0-.483.08-.935.242-1.356.162-.42.399-.788.708-1.11a3.539 3.539 0 0 1 1.167-.811 3.545 3.545 0 0 1 1.399-.277c.894 0 1.608.255 2.14.767.532.513.8 1.196.8 2.05a3.459 3.459 0 0 1-2.003 3.144 3.654 3.654 0 0 1-1.557.337c-.843 0-1.536-.26-2.08-.776-.543-.517-.816-1.174-.816-1.968zm3.331-1.204a.699.699 0 0 0-.559.277c-.153.185-.23.411-.23.681 0 .2.056.357.165.474.11.118.257.177.44.177a.707.707 0 0 0 .573-.265c.147-.177.221-.409.221-.693 0-.203-.053-.36-.162-.477a.587.587 0 0 0-.448-.174zm-9.198 3.725l1.508-8.351H16.7l-1.051 5.78h2.516l-.47 2.572h-5.527z" fill="#2A3077"/></g></svg>